<svg width="24" height="24" viewBox="0 0 24 24" fill="none" xmlns="http://www.w3.org/2000/svg">
<path d="M4.16223 8.46092L4.89801 8.3156C4.87834 8.21599 4.83864 8.12141 4.78133 8.03759L4.16223 8.46092ZM4.91049 4.322L4.47767 3.70949L4.4776 3.70955L4.91049 4.322ZM6.723 3.0412L6.29019 2.42869L6.29018 2.4287L6.723 3.0412ZM8.73335 3.29713L9.30582 2.81259L9.30568 2.81243L8.73335 3.29713ZM11.0326 8.33535L10.548 7.76289L11.0326 8.33535ZM9.28311 9.81611L9.76765 10.3886L9.28311 9.81611ZM8.67072 10.2142L8.33856 9.54174C8.02899 9.69466 7.86382 10.0392 7.93845 10.3763L8.67072 10.2142ZM12.9626 15.096L12.6537 15.7794C12.9802 15.927 13.3655 15.823 13.5735 15.5311L12.9626 15.096ZM15.1102 13.1529L14.6256 12.5804L14.6256 12.5804L15.1102 13.1529ZM19.442 18.2708L19.9265 18.8433L19.9266 18.8433L19.442 18.2708ZM17.6148 19.8033L17.1754 19.1955C17.1411 19.2203 17.1089 19.248 17.0793 19.2782L17.6148 19.8033ZM14.6682 20.432L14.404 21.1339L14.404 21.1339L14.6682 20.432ZM4.16223 8.46092L4.78133 8.03759C4.10153 7.0434 4.32637 5.6533 5.34339 4.93446L4.91049 4.322L4.4776 3.70955C2.78008 4.90938 2.40878 7.22532 3.54312 8.88425L4.16223 8.46092ZM4.91049 4.322L5.34332 4.93451L7.15583 3.65371L6.723 3.0412L6.29018 2.4287L4.47767 3.70949L4.91049 4.322ZM6.723 3.0412L7.15582 3.65371C7.47313 3.4295 7.90958 3.48493 8.16102 3.78183L8.73335 3.29713L9.30568 2.81243C8.55207 1.92256 7.24302 1.75539 6.29019 2.42869L6.723 3.0412ZM8.73335 3.29713L8.16088 3.78167L10.636 6.70588L11.2084 6.22134L11.7809 5.73679L9.30582 2.81259L8.73335 3.29713ZM11.2084 6.22134L10.636 6.70588C10.9036 7.02204 10.8642 7.49528 10.548 7.76289L11.0326 8.33535L11.5171 8.90782C12.4656 8.10501 12.5837 6.68529 11.7809 5.73679L11.2084 6.22134ZM11.0326 8.33535L10.548 7.76289L8.79857 9.24364L9.28311 9.81611L9.76765 10.3886L11.5171 8.90782L11.0326 8.33535ZM9.28311 9.81611L8.79857 9.24364C8.66001 9.36092 8.50579 9.45914 8.33856 9.54174L8.67072 10.2142L9.00288 10.8866C9.26528 10.757 9.52468 10.5942 9.76765 10.3886L9.28311 9.81611ZM8.67072 10.2142L7.93845 10.3763C8.22625 11.6763 8.73371 12.7411 9.53201 13.6346C10.3237 14.5206 11.3642 15.1965 12.6537 15.7794L12.9626 15.096L13.2716 14.4125C12.0968 13.8815 11.2563 13.3131 10.6506 12.6351C10.0514 11.9646 9.64503 11.1454 9.40299 10.0521L8.67072 10.2142ZM12.9626 15.096L13.5735 15.5311C13.6835 15.3767 13.8088 15.2369 13.9518 15.1159L13.4673 14.5434L12.9828 13.9709C12.7344 14.1811 12.5262 14.416 12.3518 14.6608L12.9626 15.096ZM13.4673 14.5434L13.9518 15.1159L15.5947 13.7254L15.1102 13.1529L14.6256 12.5804L12.9828 13.9709L13.4673 14.5434ZM15.1102 13.1529L15.5947 13.7254C15.9109 13.4578 16.3841 13.4971 16.6517 13.8133L17.2242 13.3287L17.7966 12.8442C16.9938 11.8957 15.5741 11.7777 14.6256 12.5804L15.1102 13.1529ZM17.2242 13.3287L16.6517 13.8133L19.0454 16.6413L19.6179 16.1568L20.1903 15.6722L17.7966 12.8442L17.2242 13.3287ZM19.6179 16.1568L19.0454 16.6413C19.313 16.9575 19.2736 17.4307 18.9575 17.6984L19.442 18.2708L19.9266 18.8433C20.875 18.0405 20.9931 16.6208 20.1903 15.6722L19.6179 16.1568ZM19.442 18.2708L18.9575 17.6983L17.3146 19.0889L17.7991 19.6613L18.2837 20.2338L19.9265 18.8433L19.442 18.2708ZM17.7991 19.6613L17.3146 19.0889C17.2773 19.1204 17.2336 19.1534 17.1754 19.1955L17.6148 19.8033L18.0542 20.4111C18.1206 20.3631 18.2017 20.3032 18.2837 20.2338L17.7991 19.6613ZM17.6148 19.8033L17.0793 19.2782C16.8533 19.5086 16.4917 19.695 16.0673 19.7823C15.6428 19.8697 15.2308 19.8424 14.9324 19.73L14.6682 20.432L14.404 21.1339C15.0183 21.3651 15.7259 21.3841 16.3697 21.2515C17.0136 21.119 17.669 20.8193 18.1503 20.3284L17.6148 19.8033ZM14.6682 20.432L14.9324 19.73C10.0019 17.874 5.90743 13.4264 4.89801 8.3156L4.16223 8.46092L3.42644 8.60625C4.54724 14.281 9.04222 19.1155 14.404 21.1339L14.6682 20.432Z" fill="#111111"/>
<path d="M15 7.01729L15.5614 7.07331C17.0525 7.22211 18.0051 8.73453 17.4953 10.1436V10.1436" stroke="#111111" stroke-width="1.5" stroke-linecap="round" stroke-linejoin="round"/>
<path d="M15.4323 3.46743L15.7636 3.50143C18.7031 3.80314 20.9534 6.25404 21.0036 9.20856V9.20856" stroke="#111111" stroke-width="1.5" stroke-linecap="round" stroke-linejoin="round"/>
</svg>
