<svg width="65" height="78" viewBox="0 0 65 78" fill="none" xmlns="http://www.w3.org/2000/svg">
<path d="M0 33C0 25.268 6.26801 19 14 19H51C58.732 19 65 25.268 65 33V59H0V33Z" fill="#589FF7" fill-opacity="0.69"/>
<path d="M0 33C0 25.268 6.26801 19 14 19H15C22.732 19 29 25.268 29 33V59H0V33Z" fill="#589FF7"/>
<path d="M30 2.5C30 1.11929 31.1193 0 32.5 0V0C33.8807 0 35 1.11929 35 2.5V19H30V2.5Z" fill="#589FF7"/>
<path d="M27 59H37V73C37 75.7614 34.7614 78 32 78V78C29.2386 78 27 75.7614 27 73V59Z" fill="#589FF7"/>
<path d="M35 3H41.5C44.5376 3 47 5.46243 47 8.5V8.5C47 11.5376 44.5376 14 41.5 14H35V3Z" fill="#D90865" fill-opacity="0.68"/>
<path d="M7.5 40.5L12.5 45.5L22 35" stroke="white" stroke-width="4" stroke-linecap="round" stroke-linejoin="round"/>
</svg>
