<svg width="24" height="24" viewBox="0 0 24 24" fill="none" xmlns="http://www.w3.org/2000/svg">
<path d="M12.0002 4.76846L11.462 5.29075L12.0002 5.84546L12.5385 5.29075L12.0002 4.76846ZM20.2844 4.76846L20.8227 4.24618L20.8227 4.24618L20.2844 4.76846ZM20.2844 13.3056L19.7462 12.7833L19.7462 12.7833L20.2844 13.3056ZM13.3928 20.4081L13.9311 20.9304L13.9311 20.9304L13.3928 20.4081ZM10.6077 20.4081L10.0694 20.9304L10.0694 20.9304L10.6077 20.4081ZM3.71606 13.3056L4.25433 12.7833L4.25432 12.7833L3.71606 13.3056ZM3.71606 4.76846L3.17781 4.24617L3.17781 4.24618L3.71606 4.76846ZM12.0002 4.76846L12.5385 5.29075C14.5316 3.23675 17.7531 3.23675 19.7462 5.29075L20.2844 4.76846L20.8227 4.24618C18.2404 1.58494 14.0443 1.58494 11.462 4.24618L12.0002 4.76846ZM20.2844 4.76846L19.7462 5.29075C21.7515 7.35739 21.7515 10.7166 19.7462 12.7833L20.2844 13.3056L20.8227 13.8279C23.3926 11.1793 23.3927 6.89475 20.8227 4.24618L20.2844 4.76846ZM20.2844 13.3056L19.7462 12.7833L12.8546 19.8858L13.3928 20.4081L13.9311 20.9304L20.8227 13.8278L20.2844 13.3056ZM13.3928 20.4081L12.8546 19.8858C12.38 20.3749 11.6205 20.3749 11.1459 19.8858L10.6077 20.4081L10.0694 20.9304C11.1332 22.0266 12.8673 22.0267 13.9311 20.9304L13.3928 20.4081ZM10.6077 20.4081L11.1459 19.8858L4.25433 12.7833L3.71606 13.3056L3.1778 13.8278L10.0694 20.9304L10.6077 20.4081ZM3.71606 13.3056L4.25432 12.7833C2.24897 10.7166 2.24897 7.35741 4.25432 5.29075L3.71606 4.76846L3.17781 4.24618C0.607805 6.89475 0.607807 11.1793 3.17781 13.8279L3.71606 13.3056ZM3.71606 4.76846L4.25431 5.29075C6.24739 3.23677 9.46894 3.23676 11.462 5.29075L12.0002 4.76846L12.5385 4.24618C9.95621 1.58495 5.7601 1.58498 3.17781 4.24617L3.71606 4.76846Z" fill="#111111"/>
</svg>
