<svg width="24" height="24" viewBox="0 0 24 24" fill="none" xmlns="http://www.w3.org/2000/svg">
<mask id="path-1-inside-1_169_53" fill="white">
<path d="M12.0002 4.76846C14.2879 2.41085 17.9967 2.41085 20.2844 4.76846C22.5721 7.12607 22.5721 10.948 20.2844 13.3056L13.3928 20.4081C12.6236 21.2008 11.3769 21.2008 10.6077 20.4081L3.71606 13.3056C1.42839 10.948 1.42839 7.12608 3.71606 4.76846C6.00374 2.41088 9.71258 2.41086 12.0002 4.76846Z"/>
</mask>
<path d="M12.0002 4.76846L10.9237 5.81304L12.0002 6.92245L13.0768 5.81304L12.0002 4.76846ZM20.2844 4.76846L21.3609 3.72389L21.3609 3.72389L20.2844 4.76846ZM20.2844 13.3056L19.2079 12.261L19.2079 12.261L20.2844 13.3056ZM13.3928 20.4081L14.4693 21.4527L14.4693 21.4527L13.3928 20.4081ZM10.6077 20.4081L9.53114 21.4527L9.53121 21.4527L10.6077 20.4081ZM3.71606 13.3056L4.79259 12.261L4.79257 12.261L3.71606 13.3056ZM3.71606 4.76846L2.63956 3.72388L2.63956 3.72389L3.71606 4.76846ZM12.0002 4.76846L13.0768 5.81304C14.7752 4.06265 17.5095 4.06265 19.2079 5.81304L20.2844 4.76846L21.3609 3.72389C18.484 0.759037 13.8006 0.759037 10.9237 3.72389L12.0002 4.76846ZM20.2844 4.76846L19.2079 5.81303C20.9309 7.58872 20.9309 10.4853 19.2079 12.261L20.2844 13.3056L21.3609 14.3501C24.2132 11.4106 24.2132 6.66342 21.3609 3.72389L20.2844 4.76846ZM20.2844 13.3056L19.2079 12.261L12.3163 19.3636L13.3928 20.4081L14.4693 21.4527L21.3609 14.3501L20.2844 13.3056ZM13.3928 20.4081L12.3163 19.3635C12.1364 19.5489 11.8642 19.549 11.6841 19.3635L10.6077 20.4081L9.53121 21.4527C10.8896 22.8525 13.1109 22.8527 14.4693 21.4527L13.3928 20.4081ZM10.6077 20.4081L11.6842 19.3636L4.79259 12.261L3.71606 13.3056L2.63954 14.3501L9.53114 21.4527L10.6077 20.4081ZM3.71606 13.3056L4.79257 12.261C3.06955 10.4853 3.06955 7.58873 4.79257 5.81304L3.71606 4.76846L2.63956 3.72389C-0.212777 6.66343 -0.212775 11.4106 2.63956 14.3501L3.71606 13.3056ZM3.71606 4.76846L4.79256 5.81304C6.49103 4.06267 9.2253 4.06267 10.9237 5.81304L12.0002 4.76846L13.0768 3.72389C10.1999 0.759039 5.51646 0.759076 2.63956 3.72388L3.71606 4.76846Z" fill="#111111" mask="url(#path-1-inside-1_169_53)"/>
</svg>
