<svg width="24" height="24" viewBox="0 0 24 24" fill="none" xmlns="http://www.w3.org/2000/svg">
<path d="M3 5.5H21" stroke="#111111" stroke-width="1.5" stroke-linecap="round"/>
<rect x="2.75" y="10.75" width="18.5" height="8.5" rx="1.25" stroke="#111111" stroke-width="1.5"/>
<path d="M6.75 11L6.75 10.25L5.25 10.25L5.25 11L6.75 11ZM5.25 15C5.25 15.4142 5.58579 15.75 6 15.75C6.41421 15.75 6.75 15.4142 6.75 15L5.25 15ZM6 11L5.25 11L5.25 15L6 15L6.75 15L6.75 11L6 11Z" fill="#111111"/>
<path d="M12.75 11V10.25H11.25V11H12.75ZM11.25 15C11.25 15.4142 11.5858 15.75 12 15.75C12.4142 15.75 12.75 15.4142 12.75 15H11.25ZM12 11H11.25V15H12H12.75V11H12Z" fill="#111111"/>
<path d="M18.75 11V10.25H17.25V11H18.75ZM17.25 15C17.25 15.4142 17.5858 15.75 18 15.75C18.4142 15.75 18.75 15.4142 18.75 15H17.25ZM18 11H17.25V15H18H18.75V11H18Z" fill="#111111"/>
<path d="M15.75 11V10.25H14.25V11H15.75ZM14.25 13C14.25 13.4142 14.5858 13.75 15 13.75C15.4142 13.75 15.75 13.4142 15.75 13H14.25ZM15 11H14.25V13H15H15.75V11H15Z" fill="#111111"/>
<path d="M9.75 11V10.25H8.25V11H9.75ZM8.25 13C8.25 13.4142 8.58579 13.75 9 13.75C9.41421 13.75 9.75 13.4142 9.75 13H8.25ZM9 11H8.25V13H9H9.75V11H9Z" fill="#111111"/>
<path d="M3 4V7" stroke="#111111" stroke-width="1.5" stroke-linecap="round"/>
<path d="M21 4V7" stroke="#111111" stroke-width="1.5" stroke-linecap="round"/>
</svg>
