<svg width="24" height="24" viewBox="0 0 24 24" fill="none" xmlns="http://www.w3.org/2000/svg">
<path d="M12.25 1C9.62665 1 7.5 3.12665 7.5 5.75V8.25C7.5 8.66421 7.83579 9 8.25 9C8.66421 9 9 8.66421 9 8.25V5.75C9 3.95507 10.4551 2.5 12.25 2.5H17.25C19.0449 2.5 20.5 3.95507 20.5 5.75V17.75C20.5 19.5449 19.0449 21 17.25 21H12.25C10.4551 21 9 19.5449 9 17.75V15.25C9 14.8358 8.66421 14.5 8.25 14.5C7.83579 14.5 7.5 14.8358 7.5 15.25V17.75C7.5 20.3734 9.62665 22.5 12.25 22.5H17.25C19.8734 22.5 22 20.3734 22 17.75V5.75C22 3.12665 19.8734 1 17.25 1H12.25ZM4.78027 8.21973C4.50567 7.94512 4.07095 7.92766 3.77637 8.16797L3.71973 8.21973L0.790039 11.1494L0.732422 11.2139C0.478298 11.5255 0.478296 11.9745 0.732422 12.2861L0.790039 12.3506L3.71973 15.2803C4.01262 15.5732 4.48738 15.5732 4.78027 15.2803C5.07317 14.9874 5.07317 14.5126 4.78027 14.2197L2.31055 11.75L4.78027 9.28027L4.83203 9.22363C5.07234 8.92905 5.05488 8.49433 4.78027 8.21973ZM6.25 11C5.83579 11 5.5 11.3358 5.5 11.75C5.5 12.1642 5.83579 12.5 6.25 12.5H14.25C14.6642 12.5 15 12.1642 15 11.75C15 11.3358 14.6642 11 14.25 11H6.25Z" fill="#111111"/>
</svg>
