<svg width="24" height="24" viewBox="0 0 24 24" fill="none" xmlns="http://www.w3.org/2000/svg">
<path d="M10.25 0C7.07436 0 4.5 2.57436 4.5 5.75V11.75C4.5 12.1642 4.83579 12.5 5.25 12.5C5.66421 12.5 6 12.1642 6 11.75V5.75C6 3.40279 7.90279 1.5 10.25 1.5H18.25C20.5972 1.5 22.5 3.40279 22.5 5.75V17.75C22.5 20.0972 20.5972 22 18.25 22H9.25C8.83579 22 8.5 22.3358 8.5 22.75C8.5 23.1642 8.83579 23.5 9.25 23.5H18.25C21.4256 23.5 24 20.9256 24 17.75V5.75C24 2.57436 21.4256 4.83192e-08 18.25 0H10.25ZM5.25 15C4.83579 15 4.5 15.3358 4.5 15.75V18H2.25C1.83579 18 1.5 18.3358 1.5 18.75C1.5 19.1642 1.83579 19.5 2.25 19.5H4.5V21.75C4.5 22.1642 4.83579 22.5 5.25 22.5C5.66421 22.5 6 22.1642 6 21.75V19.5H8.25C8.66421 19.5 9 19.1642 9 18.75C9 18.3358 8.66421 18 8.25 18H6V15.75C6 15.3358 5.66421 15 5.25 15ZM13.6729 13.0039C13.2949 13.0425 13 13.3618 13 13.75C13 14.1382 13.2949 14.4575 13.6729 14.4961L13.75 14.5H17.25C17.6642 14.5 18 14.1642 18 13.75C18 13.3358 17.6642 13 17.25 13H13.75L13.6729 13.0039ZM10.1729 8.00391C9.79488 8.04253 9.5 8.36183 9.5 8.75C9.5 9.13817 9.79488 9.45747 10.1729 9.49609L10.25 9.5H17.25C17.6642 9.5 18 9.16421 18 8.75C18 8.33579 17.6642 8 17.25 8H10.25L10.1729 8.00391Z" fill="#111111"/>
</svg>
