<svg width="24" height="24" viewBox="0 0 24 24" fill="none" xmlns="http://www.w3.org/2000/svg">
<path d="M12 2.75C15.4518 2.75 18.25 5.54822 18.25 9V12.374C18.25 12.9538 18.4531 13.5155 18.8242 13.9609L19.9121 15.2666C20.8994 16.4514 20.0569 18.25 18.5146 18.25H5.48535C3.94312 18.25 3.10058 16.4514 4.08789 15.2666L5.17578 13.9609C5.54692 13.5155 5.75 12.9538 5.75 12.374V9C5.75 5.54822 8.54822 2.75 12 2.75Z" stroke="black" stroke-width="1.5"/>
<path d="M9 21C9 21 10.6901 22 12 22C13.3099 22 15 21 15 21" stroke="black" stroke-width="1.5" stroke-linecap="round" stroke-linejoin="round"/>
</svg>
