<svg width="24" height="24" viewBox="0 0 24 24" fill="none" xmlns="http://www.w3.org/2000/svg">
<path d="M2 11.7822C2 9.69334 3.69334 8 5.78218 8C6.05443 8 6.31347 7.88265 6.493 7.67798L7.94589 6.02169C8.5155 5.37233 9.33738 5 10.2012 5H13.7988C14.6626 5 15.4845 5.37233 16.0541 6.02169L17.507 7.67798C17.6865 7.88265 17.9456 8 18.2178 8C20.3067 8 22 9.69334 22 11.7822V18.5C22 20.7091 20.2091 22.5 18 22.5H6C3.79086 22.5 2 20.7091 2 18.5V11.7822Z" fill="white"/>
<path d="M9.85645 13.7451C10.2735 12.2854 11.7951 11.4396 13.2549 11.8564C14.7146 12.2735 15.5604 13.7951 15.1436 15.2549C14.7265 16.7146 13.2049 17.5604 11.7451 17.1436C10.2854 16.7265 9.4396 15.2049 9.85645 13.7451Z" stroke="#111111" stroke-width="1.5"/>
</svg>
