<svg width="24" height="24" viewBox="0 0 24 24" fill="none" xmlns="http://www.w3.org/2000/svg">
<path d="M11.5029 2.75H12.4971C13.2841 2.75 14.0443 3.03559 14.6367 3.55371L20.1406 8.36914C20.8458 8.98627 21.25 9.87836 21.25 10.8154V18C21.25 19.7949 19.7949 21.25 18 21.25H16C15.3096 21.25 14.75 20.6904 14.75 20V17C14.75 16.0335 13.9665 15.25 13 15.25H11C10.0335 15.25 9.25 16.0335 9.25 17V20C9.25 20.6904 8.69036 21.25 8 21.25H6C4.20507 21.25 2.75 19.7949 2.75 18V10.8154C2.75 9.87836 3.15423 8.98627 3.85938 8.36914L9.36328 3.55371C9.95566 3.03559 10.7159 2.75 11.5029 2.75Z" stroke="#111111" stroke-width="1.5"/>
</svg>
