<svg width="24" height="24" viewBox="0 0 24 24" fill="none" xmlns="http://www.w3.org/2000/svg">
<path d="M12.2041 2.01074C13.1965 2.11136 13.9733 2.93719 13.998 3.9502H17.7002C18.6666 3.95027 19.4502 4.73374 19.4502 5.7002V14.7002C19.4501 15.6666 18.6666 16.4501 17.7002 16.4502H14.25C13.2837 16.4501 12.5001 15.6665 12.5 14.7002V13.9346C12.4039 13.9593 12.3052 13.979 12.2041 13.9893L12 14H7.5L7.2959 14.0107C6.28734 14.1131 5.5 14.9644 5.5 16V22.25L5.49609 22.3271C5.45746 22.7051 5.13816 23 4.75 23C4.36194 22.9999 4.04252 22.705 4.00391 22.3271L4 22.25V4C4 2.96443 4.78734 2.11312 5.7959 2.01074L6 2H12L12.2041 2.01074ZM14 14.7002C14.0001 14.8381 14.1121 14.9501 14.25 14.9502H17.7002C17.8381 14.9501 17.9501 14.8381 17.9502 14.7002V5.7002C17.9502 5.56217 17.8382 5.45027 17.7002 5.4502H14V14.7002ZM6 3.5C5.72397 3.50013 5.5 3.72394 5.5 4V13.1279C6.06691 12.7324 6.75635 12.5001 7.5 12.5H12C12.2761 12.5 12.5 12.2761 12.5 12V4C12.5 3.72386 12.2761 3.5 12 3.5H6Z" fill="#DC3545"/>
</svg>
