<svg width="24" height="24" viewBox="0 0 24 24" fill="none" xmlns="http://www.w3.org/2000/svg">
<path d="M11.2461 2.01074C10.2536 2.11136 9.47693 2.93719 9.45215 3.9502H5.75C4.78356 3.95027 4 4.73374 4 5.7002V14.7002C4.0001 15.6666 4.78363 16.4501 5.75 16.4502H9.2002C10.1665 16.4501 10.9501 15.6665 10.9502 14.7002V13.9346C11.0463 13.9593 11.145 13.979 11.2461 13.9893L11.4502 14H15.9502L16.1543 14.0107C17.1629 14.1131 17.9502 14.9644 17.9502 16V22.25L17.9541 22.3271C17.9927 22.7051 18.312 23 18.7002 23C19.0883 22.9999 19.4077 22.705 19.4463 22.3271L19.4502 22.25V4C19.4502 2.96443 18.6629 2.11312 17.6543 2.01074L17.4502 2H11.4502L11.2461 2.01074ZM9.4502 14.7002C9.45009 14.8381 9.33812 14.9501 9.2002 14.9502H5.75C5.61205 14.9501 5.5001 14.8381 5.5 14.7002V5.7002C5.5 5.56217 5.61199 5.45027 5.75 5.4502H9.4502V14.7002ZM17.4502 3.5C17.7262 3.50013 17.9502 3.72394 17.9502 4V13.1279C17.3833 12.7324 16.6938 12.5001 15.9502 12.5H11.4502C11.1741 12.5 10.9502 12.2761 10.9502 12V4C10.9502 3.72386 11.1741 3.5 11.4502 3.5H17.4502Z" fill="#DC3545"/>
</svg>
