<svg width="24" height="24" viewBox="0 0 24 24" fill="none" xmlns="http://www.w3.org/2000/svg">
<path d="M6.53027 16.9697C6.23752 16.6773 5.76255 16.6765 5.46973 16.9688L1.96973 20.4697L1.91797 20.5264C1.67772 20.8209 1.69525 21.2557 1.96973 21.5303C2.26253 21.8229 2.7374 21.8228 3.03027 21.5303L6.53027 18.0303L6.58203 17.9736C6.82191 17.6792 6.80444 17.2442 6.53027 16.9697ZM13 2C8.58172 2 5 5.58172 5 10C5 14.4183 8.58172 18 13 18C17.4183 18 21 14.4183 21 10C21 5.58172 17.4183 2 13 2ZM13 3.5C16.5899 3.5 19.5 6.41015 19.5 10C19.5 13.5899 16.5899 16.5 13 16.5C9.41015 16.5 6.5 13.5899 6.5 10C6.5 6.41015 9.41015 3.5 13 3.5Z" fill="#111111"/>
</svg>
