<svg width="24" height="24" viewBox="0 0 24 24" fill="none" xmlns="http://www.w3.org/2000/svg">
<mask id="path-1-inside-1_129_118" fill="white">
<path d="M15.8502 2.98008C15.8502 4.21574 17.2155 4.96357 18.2568 4.29825C18.9847 3.83311 19.9519 4.04613 20.4171 4.77406L22.3416 7.78539C22.8954 8.65194 22.6418 9.80338 21.7751 10.3571L21.5413 10.5064C20.4602 11.1971 20.5077 12.7917 21.628 13.4168C22.446 13.8732 22.7391 14.9062 22.2828 15.7242L20.4932 18.9325C20.0545 19.7189 19.0613 20.0007 18.275 19.5619L17.936 19.3728C17.0012 18.8512 15.8502 19.527 15.8502 20.5975C15.8502 21.3721 15.2223 22 14.4478 22H10.0472C9.38611 22 8.85022 21.4641 8.85022 20.8031C8.85022 19.8574 7.80527 19.2852 7.00855 19.7946L6.78248 19.9391C6.15707 20.3389 5.32595 20.156 4.92623 19.5305L2.74891 16.1235C2.26926 15.373 2.48873 14.3757 3.23915 13.8959C4.26699 13.2387 4.22137 11.7224 3.15589 11.1281L2.91307 10.9927C2.0548 10.514 1.74713 9.43021 2.22587 8.57199L3.92692 5.52256C4.39208 4.68868 5.44516 4.38976 6.27905 4.85489C7.43149 5.49771 8.85022 4.66456 8.85022 3.34496V2.95686C8.85022 1.87612 9.72633 1 10.8071 1H14.1388C15.084 1 15.8502 1.76623 15.8502 2.71143V2.98008Z"/>
</mask>
<path d="M2.91307 10.9927L3.6437 9.68268L2.91307 10.9927ZM2.22587 8.57199L0.915896 7.84125L2.22587 8.57199ZM2.74891 16.1235L1.48497 16.9313L2.74891 16.1235ZM6.78248 19.9391L5.97452 18.6753L6.78248 19.9391ZM4.92623 19.5305L3.66229 20.3383L4.92623 19.5305ZM7.00855 19.7946L7.8165 21.0584L7.00855 19.7946ZM17.936 19.3728L17.2052 20.6827L17.936 19.3728ZM20.4932 18.9325L19.1832 18.2017L20.4932 18.9325ZM18.275 19.5619L17.5441 20.8718L18.275 19.5619ZM22.2828 15.7242L23.5928 16.455L22.2828 15.7242ZM21.5413 10.5064L20.7337 9.24238L21.5413 10.5064ZM22.3416 7.78539L21.0776 8.59313L22.3416 7.78539ZM20.4171 4.77406L19.1532 5.5818L21.0776 8.59313L22.3416 7.78539L23.6055 6.97764L21.6811 3.96631L20.4171 4.77406ZM21.7751 10.3571L20.9675 9.09301L20.7337 9.24238L21.5413 10.5064L22.3489 11.7705L22.5827 11.6211L21.7751 10.3571ZM22.2828 15.7242L20.9729 14.9935L19.1832 18.2017L20.4932 18.9325L21.8032 19.6632L23.5928 16.455L22.2828 15.7242ZM18.275 19.5619L19.0059 18.2521L18.6669 18.0629L17.936 19.3728L17.2052 20.6827L17.5441 20.8718L18.275 19.5619ZM14.4478 22V20.5H10.0472V22V23.5H14.4478V22ZM7.00855 19.7946L6.20059 18.5308L5.97452 18.6753L6.78248 19.9391L7.59044 21.2029L7.8165 21.0584L7.00855 19.7946ZM4.92623 19.5305L6.19017 18.7228L4.01285 15.3158L2.74891 16.1235L1.48497 16.9313L3.66229 20.3383L4.92623 19.5305ZM3.15589 11.1281L3.88652 9.81811L3.6437 9.68268L2.91307 10.9927L2.18243 12.3027L2.42525 12.4382L3.15589 11.1281ZM2.22587 8.57199L3.53584 9.30272L5.23689 6.2533L3.92692 5.52256L2.61695 4.79182L0.915896 7.84125L2.22587 8.57199ZM8.85022 3.34496H10.3502V2.95686H8.85022H7.35022V3.34496H8.85022ZM10.8071 1V2.5H14.1388V1V-0.5H10.8071V1ZM15.8502 2.71143H14.3502V2.98008H15.8502H17.3502V2.71143H15.8502ZM14.1388 1V2.5C14.2556 2.5 14.3502 2.59466 14.3502 2.71143H15.8502H17.3502C17.3502 0.937807 15.9124 -0.5 14.1388 -0.5V1ZM8.85022 2.95686H10.3502C10.3502 2.70454 10.5548 2.5 10.8071 2.5V1V-0.5C8.89791 -0.5 7.35022 1.04769 7.35022 2.95686H8.85022ZM6.27905 4.85489L5.54835 6.16489C7.70063 7.3654 10.3502 5.80942 10.3502 3.34496H8.85022H7.35022C7.35022 3.5197 7.16236 3.63002 7.00975 3.5449L6.27905 4.85489ZM3.92692 5.52256L5.23689 6.2533C5.29849 6.14288 5.43793 6.1033 5.54835 6.16489L6.27905 4.85489L7.00975 3.5449C5.45238 2.67622 3.48568 3.23448 2.61695 4.79182L3.92692 5.52256ZM2.91307 10.9927L3.6437 9.68268C3.50899 9.60755 3.46069 9.43743 3.53584 9.30272L2.22587 8.57199L0.915896 7.84125C0.0335578 9.42299 0.600619 11.4205 2.18243 12.3027L2.91307 10.9927ZM3.23915 13.8959L4.04721 15.1596C6.03084 13.8913 5.94281 10.965 3.88652 9.81811L3.15589 11.1281L2.42525 12.4382C2.45339 12.4539 2.46299 12.4674 2.4682 12.4763C2.47557 12.4889 2.48244 12.5085 2.48319 12.5335C2.48394 12.5585 2.47826 12.5785 2.47167 12.5915C2.467 12.6007 2.45823 12.6148 2.43109 12.6322L3.23915 13.8959ZM2.74891 16.1235L4.01285 15.3158C3.97923 15.2632 3.99462 15.1933 4.04721 15.1596L3.23915 13.8959L2.43109 12.6322C0.982845 13.5582 0.559296 15.4828 1.48497 16.9313L2.74891 16.1235ZM6.78248 19.9391L5.97452 18.6753C6.04718 18.6288 6.14373 18.6501 6.19017 18.7228L4.92623 19.5305L3.66229 20.3383C4.50817 21.6619 6.26697 22.049 7.59044 21.2029L6.78248 19.9391ZM8.85022 20.8031H10.3502C10.3502 18.6724 7.99576 17.3831 6.20059 18.5308L7.00855 19.7946L7.8165 21.0584C7.61479 21.1873 7.35022 21.0425 7.35022 20.8031H8.85022ZM10.0472 22V20.5C10.2145 20.5 10.3502 20.6357 10.3502 20.8031H8.85022H7.35022C7.35022 22.2925 8.55769 23.5 10.0472 23.5V22ZM15.8502 20.5975H14.3502C14.3502 20.5437 14.3939 20.5 14.4478 20.5V22V23.5C16.0507 23.5 17.3502 22.2005 17.3502 20.5975H15.8502ZM17.936 19.3728L18.6669 18.0629C16.7323 16.9834 14.3502 18.3821 14.3502 20.5975H15.8502H17.3502C17.3502 20.6049 17.3467 20.6264 17.3335 20.6486C17.3225 20.667 17.3106 20.6767 17.3021 20.6817C17.2936 20.6867 17.2793 20.6924 17.2579 20.693C17.2321 20.6937 17.2116 20.6863 17.2052 20.6827L17.936 19.3728ZM20.4932 18.9325L19.1832 18.2017C19.1481 18.2646 19.0687 18.2871 19.0059 18.2521L18.275 19.5619L17.5441 20.8718C19.0539 21.7143 20.9609 21.1732 21.8032 19.6632L20.4932 18.9325ZM21.628 13.4168L20.8972 14.7267C20.9917 14.7795 21.0256 14.8989 20.9729 14.9935L22.2828 15.7242L23.5928 16.455C24.4526 14.9135 23.9002 12.9669 22.3589 12.1069L21.628 13.4168ZM21.5413 10.5064L20.7337 9.24238C18.6965 10.5439 18.786 13.5488 20.8972 14.7267L21.628 13.4168L22.3589 12.1069C22.2294 12.0347 22.2239 11.8503 22.3489 11.7705L21.5413 10.5064ZM22.3416 7.78539L21.0776 8.59313C21.1853 8.76157 21.136 8.98538 20.9675 9.09301L21.7751 10.3571L22.5827 11.6211C24.1475 10.6214 24.6055 8.54232 23.6055 6.97764L22.3416 7.78539ZM18.2568 4.29825L19.0644 5.56225C19.0943 5.54314 19.1341 5.55189 19.1532 5.5818L20.4171 4.77406L21.6811 3.96631C20.7698 2.54036 18.8751 2.12308 17.4491 3.03425L18.2568 4.29825ZM18.2568 4.29825L17.4491 3.03425C17.4362 3.04252 17.4286 3.04503 17.4261 3.04575C17.4234 3.04658 17.4212 3.04687 17.4188 3.0469C17.413 3.04699 17.3998 3.04534 17.3836 3.03646C17.3674 3.02757 17.3589 3.01737 17.3559 3.01243C17.3546 3.01037 17.3537 3.00842 17.3529 3.00566C17.3522 3.0032 17.3502 2.99544 17.3502 2.98008H15.8502H14.3502C14.3502 5.40062 17.0247 6.86555 19.0644 5.56225L18.2568 4.29825Z" fill="#111111" mask="url(#path-1-inside-1_129_118)"/>
<circle cx="12" cy="12" r="3" stroke="#111111" stroke-width="1.5"/>
</svg>
