<svg width="38" height="46" viewBox="0 0 38 46" fill="none" xmlns="http://www.w3.org/2000/svg">
<path d="M8 1H22V13.7275C22.0001 15.9366 23.7909 17.7275 26 17.7275H36.6367V38C36.6367 41.8659 33.5025 44.9998 29.6367 45H8C4.13401 45 1 41.866 1 38V8C1 4.13401 4.13401 1 8 1Z" stroke="#111111" stroke-width="2"/>
<path d="M30.5955 6.91309L30.6042 6.92383L35.4626 12.5908H28.1365C27.5842 12.5908 27.1365 12.1431 27.1365 11.5908V2.76074L30.5955 6.91309Z" stroke="#111111" stroke-width="2"/>
<path d="M10.2222 37.6364H26.9494" stroke="#111111" stroke-width="2" stroke-linecap="round"/>
<path d="M15.3334 23.7454L18.6343 20.4445M21.9352 23.7454L18.6343 20.4445M18.6343 20.4445V30.3472" stroke="#111111" stroke-width="2" stroke-linecap="round" stroke-linejoin="round"/>
</svg>
