<svg width="24" height="24" viewBox="0 0 24 24" fill="none" xmlns="http://www.w3.org/2000/svg">
<path d="M18.3682 13.75C18.5499 13.75 18.7727 13.8259 19.0459 14.0547C19.3226 14.2865 19.6102 14.6421 19.8975 15.1104C20.4721 16.0469 20.9651 17.2992 21.3545 18.5039C21.7603 19.7594 20.7938 21.0498 19.3496 21.0498H4.65039C3.20618 21.0498 2.23974 19.7594 2.64551 18.5039C3.03487 17.2992 3.52794 16.0469 4.10254 15.1104C4.38981 14.6421 4.67739 14.2865 4.9541 14.0547C5.22731 13.8259 5.45006 13.75 5.63184 13.75C6.28354 13.75 6.59925 13.8431 6.79395 13.9355C7.04107 14.053 7.12436 14.1589 7.5127 14.4355C8.26735 14.9732 9.31181 15.4004 12 15.4004C14.6884 15.4004 15.7336 14.9732 16.4883 14.4355C16.8766 14.1589 16.9596 14.0531 17.207 13.9355C17.4017 13.8431 17.7167 13.75 18.3682 13.75Z" stroke="#111111" stroke-width="1.5"/>
<circle cx="12" cy="7.5" r="4.75" stroke="#111111" stroke-width="1.5"/>
</svg>
