<svg width="24" height="24" viewBox="0 0 24 24" fill="none" xmlns="http://www.w3.org/2000/svg">
<path d="M17.7891 13.75C18.0782 13.75 18.5164 14.0106 19.0488 14.8398C19.5462 15.6145 19.9827 16.6664 20.3379 17.7188C20.7557 18.9568 19.7991 20.25 18.3496 20.25H5.65039C4.20097 20.25 3.24433 18.9567 3.66211 17.7188C4.01722 16.6665 4.45287 15.6145 4.9502 14.8398C5.48273 14.0104 5.92169 13.75 6.21094 13.75C6.79664 13.75 7.07222 13.8337 7.2373 13.9121C7.45516 14.0156 7.51873 14.1023 7.88086 14.3604C8.58289 14.8605 9.54853 15.25 12 15.25C14.4516 15.25 15.4171 14.8605 16.1191 14.3604C16.4814 14.1022 16.5449 14.0156 16.7627 13.9121C16.9277 13.8337 17.2033 13.75 17.7891 13.75Z" stroke="#111111" stroke-width="1.5"/>
<circle cx="12" cy="8" r="4.25" stroke="#111111" stroke-width="1.5"/>
</svg>
