<svg width="24" height="24" viewBox="0 0 24 24" fill="none" xmlns="http://www.w3.org/2000/svg">
<path d="M11.5 1.75C17.5996 1.75 21.75 6.12893 21.75 11.5C21.75 18.4717 16.0313 21.75 11.5 21.75C10.6187 21.75 9.47613 21.4177 8.49609 21.0479C8.01843 20.8676 7.60102 20.6872 7.30371 20.5518C7.15561 20.4843 7.03789 20.4283 6.95801 20.3896C6.91806 20.3703 6.88714 20.3556 6.86719 20.3457C6.85726 20.3408 6.85033 20.3363 6.8457 20.334C6.84359 20.3329 6.84178 20.3325 6.84082 20.332L6.83984 20.3311L6.58203 20.2002L6.30273 20.2764L2.49121 21.3164C2.30459 21.3673 2.1327 21.1954 2.18359 21.0088L3.22363 17.1973L3.29883 16.9209L3.1709 16.665V16.6641C3.17047 16.6632 3.16909 16.6614 3.16797 16.6592C3.16572 16.6546 3.16197 16.6474 3.15723 16.6377C3.14748 16.6177 3.13343 16.5865 3.11426 16.5459C3.07587 16.4645 3.01947 16.3438 2.95215 16.1904C2.81731 15.8833 2.63702 15.4475 2.45703 14.9375C2.09147 13.9017 1.74999 12.6222 1.75 11.5C1.75007 6.11521 6.11523 1.75 11.5 1.75Z" stroke="#111111" stroke-width="1.5"/>
<path d="M8.3207 7.71293L8.78595 7.38438C9.30357 7.01861 10.0151 7.10918 10.4247 7.59277L11.2928 8.61844C11.7482 9.15652 11.6813 9.96187 11.1432 10.4173L10.7027 10.7902C10.5328 10.9339 10.3443 11.0418 10.1474 11.1181C10.4369 12.5059 11.1747 13.2875 12.5985 13.9219C12.7002 13.7553 12.8291 13.6014 12.9862 13.4684L13.4476 13.0778C13.969 12.6368 14.7494 12.7022 15.1906 13.2235L16.0089 14.1903C16.4499 14.7116 16.385 15.4914 15.864 15.9327L15.4026 16.3233C15.3403 16.3759 15.2745 16.4219 15.2078 16.465C14.8321 16.9163 14.0421 17.0814 13.5069 16.88C10.5475 15.766 8.09315 13.0489 7.59715 9.92205C7.33463 9.1361 7.59355 8.22676 8.3207 7.71293Z" fill="#111111"/>
</svg>
