<svg width="24" height="24" viewBox="0 0 24 24" fill="none" xmlns="http://www.w3.org/2000/svg">
<path d="M21.25 7.25V7C21.25 5.46336 20.1831 4.1776 18.75 3.83887V4C18.75 5.51878 17.5188 6.75 16 6.75C14.4812 6.75 13.25 5.51878 13.25 4V3.75H10.75V4C10.75 5.51878 9.51878 6.75 8 6.75C6.48122 6.75 5.25 5.51878 5.25 4V3.83887C3.81686 4.1776 2.75 5.46336 2.75 7V7.25H21.25Z" fill="#111111" stroke="#111111" stroke-width="1.5"/>
<path d="M8 2V4.5" stroke="#111111" stroke-width="1.5" stroke-linecap="round"/>
<path d="M16 2L16 4.5" stroke="#111111" stroke-width="1.5" stroke-linecap="round"/>
<path d="M21.25 9.75V18C21.25 19.7949 19.7949 21.25 18 21.25H6C4.20507 21.25 2.75 19.7949 2.75 18V9.75H21.25Z" stroke="#111111" stroke-width="1.5"/>
<path d="M11 13H12.5" stroke="#111111" stroke-width="1.5" stroke-linecap="round"/>
<path d="M11 17H12.5" stroke="#111111" stroke-width="1.5" stroke-linecap="round"/>
<path d="M6.5 13H8" stroke="#111111" stroke-width="1.5" stroke-linecap="round"/>
<path d="M6.5 17H8" stroke="#111111" stroke-width="1.5" stroke-linecap="round"/>
<path d="M15.5 13H17" stroke="#111111" stroke-width="1.5" stroke-linecap="round"/>
<path d="M15.5 17H17" stroke="#111111" stroke-width="1.5" stroke-linecap="round"/>
</svg>
